<svg xmlns="http://www.w3.org/2000/svg" data-name="Layer 2" viewBox="0 0 357.53 75.65"><path fill="#fff" d="M0 58.45v-51h14.24c9.22 0 16.21 2.25 20.96 6.75s7.07 10.82 6.96 18.95c-.11 8.35-2.46 14.65-7.04 18.91s-11.52 6.39-20.79 6.39H0zm14.33-4.67c4.42 0 8.23-.59 11.42-1.76 3.19-1.17 5.63-3.12 7.33-5.85 1.69-2.73 2.54-6.41 2.54-11.05V29.8c0-4.15-.91-7.53-2.74-10.15s-4.34-4.53-7.53-5.73c-3.19-1.2-6.86-1.8-11.01-1.8h-9.1v41.67h9.09zm53.45 5.9c-5.68 0-10.18-1.76-13.51-5.28-3.33-3.52-4.99-8.31-4.99-14.37 0-4.09.83-7.6 2.5-10.52 1.66-2.92 3.9-5.14 6.71-6.67 2.81-1.53 5.94-2.29 9.37-2.29 3.82 0 7.07.86 9.74 2.58 2.67 1.72 4.71 4.05 6.1 7s2.01 6.25 1.84 9.91H55.25v3.27c0 3.44 1.08 6.29 3.23 8.56 2.16 2.26 5.23 3.4 9.21 3.4 3.22 0 5.78-.78 7.7-2.33 1.91-1.55 3.49-3.86 4.75-6.92h5.08c-1.15 3.44-2.63 6.17-4.46 8.19-1.83 2.02-3.86 3.44-6.1 4.26-2.24.82-4.53 1.23-6.88 1.23zm0-34.71c-3.33 0-6.17.86-8.51 2.58-2.35 1.72-3.66 4.43-3.93 8.15h24.4c-.38-3.71-1.64-6.43-3.77-8.15-2.13-1.72-4.86-2.58-8.19-2.58zm42.04 34.71c-4.58.05-8.5-.93-11.75-2.95s-5.42-4.97-6.51-8.84h5.08c.87 2.24 2.4 4.03 4.58 5.36 2.18 1.34 5.08 2.03 8.68 2.09 3.16.06 5.59-.56 7.29-1.84 1.69-1.28 2.54-2.96 2.54-5.03 0-1.75-.56-3.1-1.68-4.05-1.12-.95-2.93-1.54-5.44-1.76l-9.99-.9c-3.66-.38-6.34-1.5-8.06-3.36s-2.58-4.07-2.58-6.63c0-3.16 1.28-5.83 3.85-7.98 2.56-2.16 6.3-3.23 11.22-3.23s8.68 1.19 11.79 3.56 5.05 5.31 5.81 8.8h-5.08c-.82-2.4-2.29-4.35-4.42-5.85s-4.91-2.25-8.35-2.25c-3 0-5.35.56-7.04 1.68-1.69 1.12-2.54 2.72-2.54 4.79 0 1.42.52 2.65 1.56 3.68 1.04 1.04 2.81 1.67 5.32 1.88l10.23.98c4.04.44 6.82 1.57 8.35 3.4 1.53 1.83 2.29 4 2.29 6.51 0 1.96-.48 3.86-1.43 5.69-.96 1.83-2.54 3.32-4.75 4.46-2.21 1.15-5.2 1.75-8.96 1.8zm26.28-49.45c-1.58 0-2.81-.52-3.68-1.56-.87-1.04-1.31-2.24-1.31-3.6s.44-2.55 1.31-3.56C133.29.5 134.52 0 136.1 0s2.81.51 3.68 1.51c.87 1.01 1.31 2.2 1.31 3.56s-.44 2.57-1.31 3.6c-.87 1.04-2.1 1.56-3.68 1.56zm-2.54 48.22V21.78h5.08v36.68h-5.08zm32.9 17.19c-4.42.05-8.17-1-11.26-3.15-3.08-2.16-5.14-5.23-6.18-9.21h5.32c.76 2.35 2.16 4.26 4.18 5.73 2.02 1.47 4.69 2.24 8.02 2.29 3.38.05 6.07-.86 8.06-2.74 1.99-1.88 2.99-4.71 2.99-8.47v-6.88c-1.58 2.13-3.48 3.67-5.69 4.62-2.21.95-4.68 1.43-7.41 1.43-3.33 0-6.28-.76-8.84-2.29-2.57-1.53-4.58-3.74-6.06-6.63-1.47-2.89-2.21-6.36-2.21-10.4s.74-7.57 2.21-10.44 3.51-5.08 6.1-6.63c2.59-1.56 5.55-2.33 8.88-2.33 2.73 0 5.18.48 7.37 1.43 2.18.96 4.07 2.47 5.65 4.54v-4.75h5.24v38.15c0 4.58-1.42 8.34-4.26 11.26s-6.88 4.41-12.12 4.46zm-1.47-50.59c-2.57 0-4.69.53-6.39 1.6-1.69 1.06-2.98 2.43-3.85 4.09-.87 1.67-1.31 3.4-1.31 5.2v7.94c0 1.96.44 3.78 1.31 5.44.87 1.67 2.16 3 3.85 4.01 1.69 1.01 3.82 1.51 6.39 1.51 3.71 0 6.79-1.24 9.25-3.72 2.46-2.48 3.68-6.18 3.68-11.09 0-3.33-.59-6.1-1.76-8.31-1.17-2.21-2.74-3.88-4.71-4.99-1.96-1.12-4.12-1.68-6.47-1.68zm28.89 33.4V21.78h4.75v6.47c1.42-2.46 3.29-4.35 5.61-5.69 2.32-1.34 4.98-2.01 7.98-2.01s5.65.65 7.61 1.96 3.41 3.08 4.34 5.32c.93 2.24 1.39 4.78 1.39 7.61v23h-5.08V36.5c0-3.71-.71-6.52-2.13-8.43-1.42-1.91-3.71-2.87-6.88-2.87-2.35 0-4.39.53-6.14 1.6-1.75 1.06-3.15 2.4-4.22 4.01-1.06 1.61-1.79 3.23-2.17 4.87v22.76h-5.08zm43.43 0v-51h5.24v46.34h31.93v4.67h-37.17zm56.44 1.23c-4.75 0-8.31-1.01-10.68-3.03s-3.56-4.69-3.56-8.02c0-3.06 1.02-5.35 3.07-6.88 2.05-1.53 4.87-2.35 8.47-2.46l5.73-.25c3.71-.16 6.29-.79 7.74-1.88 1.45-1.09 2.17-2.62 2.17-4.58 0-2.4-.83-4.26-2.5-5.57-1.67-1.31-3.97-1.96-6.92-1.96-3.11 0-5.59.79-7.45 2.37a14.042 14.042 0 0 0-4.09 5.81H280c.71-2.29 1.81-4.41 3.32-6.34s3.42-3.48 5.77-4.63c2.35-1.15 5.13-1.72 8.35-1.72 4.53 0 8.01 1.1 10.44 3.32 2.43 2.21 3.64 5.14 3.64 8.8v25.79h-4.99v-4.26c-1.26 2.07-3.11 3.51-5.57 4.3-2.46.79-4.86 1.19-7.2 1.19zm.57-4.17c3.71 0 6.67-.93 8.88-2.78 2.21-1.85 3.32-4.86 3.32-9v-3.6c-.76.76-1.69 1.39-2.78 1.88-1.09.49-2.63.87-4.62 1.15-1.99.27-4.74.49-8.23.65-2.08.06-3.58.52-4.5 1.39-.93.87-1.39 2.1-1.39 3.68 0 1.69.71 3.22 2.13 4.58 1.42 1.37 3.82 2.05 7.21 2.05zm27.93 2.94V1.15h5.08v25.54c1.53-2.13 3.41-3.68 5.65-4.67 2.24-.98 4.72-1.47 7.45-1.47 3.33 0 6.28.79 8.84 2.37 2.56 1.58 4.58 3.82 6.06 6.71 1.47 2.89 2.21 6.39 2.21 10.48s-.74 7.67-2.21 10.56c-1.47 2.89-3.51 5.12-6.1 6.67-2.59 1.56-5.55 2.33-8.88 2.33-2.73 0-5.2-.49-7.41-1.47s-4.11-2.54-5.69-4.67v4.91h-4.99zm17.68-3.27c2.51 0 4.62-.53 6.34-1.6 1.72-1.06 3.01-2.44 3.89-4.13.87-1.69 1.31-3.47 1.31-5.32v-8.02c0-1.91-.44-3.71-1.31-5.4-.87-1.69-2.17-3.06-3.89-4.09-1.72-1.04-3.83-1.56-6.34-1.56-3.71 0-6.79 1.26-9.25 3.77S327 35.08 327 40.04c0 3.33.59 6.11 1.76 8.35 1.17 2.24 2.73 3.93 4.67 5.08s4.11 1.72 6.51 1.72z" data-name="Layer 1"/></svg>